# xmcd
#
# Track frame offsets:
#	150
#	11675
#	30769
#	41000
#	53638
#	65055
#	78141
#	87253
#	103417
#	112881
#	128468
#	140006
# Disc length: 2026 seconds
# Revision: 1
# Processed by: cddbd v1.5.1PL0 Copyright (c) Steve Scherf et al.
#
# Submitted via: libkcddb 0.10
#
DISCID=9207e80c
DTITLE=Gospel Parade - Doyle Lawson and Quicksilver
DYEAR=2001
DGENRE=Bluegrass
TTITLE0=Be Living
TTITLE1=The Best Is Yet To Come
TTITLE2=Gloryland Boogie
TTITLE3=I Heard Zion Moan
TTITLE4=Movin' Up
TTITLE5=I Have A Desire
TTITLE6=Some Of These Days
TTITLE7=He Is Risen
TTITLE8=The Heavenly Parade
TTITLE9=My Heavenly Home
TTITLE10=He Knows How Much You Can Bear
TTITLE11=Have You Met My Friend
EXTD=
EXTT0=
EXTT1=
EXTT2=
EXTT3=
EXTT4=
EXTT5=
EXTT6=
EXTT7=
EXTT8=
EXTT9=
EXTT10=
EXTT11=
PLAYORDER=
